<?xml version="1.0" encoding="UTF-8" standalone="no"?>
<svg width="240px" height="50px" viewBox="0 0 240 50" version="1.1" xmlns="http://www.w3.org/2000/svg" xmlns:xlink="http://www.w3.org/1999/xlink">
    <!-- Generator: sketchtool 42 (36781) - http://www.bohemiancoding.com/sketch -->
    <title>2540D6B0-E7FC-4CE5-9CF6-F233411C9988</title>
    <desc>Created with sketchtool.</desc>
    <defs>
        <polygon id="path-1" points="6.53593117 7.23562607 6.53593117 0.716300743 0.482762551 0.716300743 0.482762551 7.23562607 6.53593117 7.23562607"></polygon>
        <polygon id="path-3" points="9.77065688 0.0111492281 0.650231781 0.0111492281 0.650231781 8.96672956 9.77065688 8.96672956 9.77065688 0.0111492281"></polygon>
    </defs>
    <g id="Symbols" stroke="none" stroke-width="1" fill="none" fill-rule="evenodd">
        <g id="OM-logo">
            <g>
                <polygon id="Fill-1" fill="#EB6608" points="135.95185 48.754311 136.661466 48.754311 136.661466 10.9576844 135.95185 10.9576844"></polygon>
                <g id="Group-68" transform="translate(0.000000, 0.732356)">
                    <path d="M146.831972,33.8420698 L150.522719,33.8420698 C151.650634,33.8420698 152.516365,33.3931275 152.516365,32.2358376 C152.516365,31.0071927 151.745498,30.6779188 150.737845,30.6779188 L146.831972,30.6779188 L146.831972,33.8420698 Z M146.831972,29.8744311 L150.309087,29.8744311 C151.496013,29.8744311 152.256421,29.4961006 152.256421,28.3744883 C152.256421,27.3465294 151.567721,27.0150257 150.605632,27.0150257 L146.831972,27.0150257 L146.831972,29.8744311 Z M145.953543,26.2122813 L150.772205,26.2122813 C152.433452,26.2122813 153.134851,27.1465866 153.134851,28.3388107 C153.134851,29.1527044 152.682938,29.9093654 151.675284,30.1464723 L151.675284,30.169514 C152.801705,30.3471584 153.466502,31.1499028 153.466502,32.2358376 C153.466502,33.9959291 151.971081,34.6448142 150.678087,34.6448142 L145.966241,34.6448142 L145.953543,26.2122813 Z" id="Fill-2" fill="#7B7A73"></path>
                    <path d="M160.976101,31.1267867 C160.726615,29.6149514 159.612145,29.047084 158.435678,29.047084 C157.30851,29.047084 156.08573,29.6149514 155.896001,31.1267867 L160.976101,31.1267867 Z M161.699908,32.6847055 C161.355558,33.7706404 160.418866,34.8342767 158.37592,34.8342767 C155.860147,34.8342767 155.018319,33.0756718 155.018319,31.5749857 C155.018319,29.8609777 156.073032,28.3149514 158.37592,28.3149514 C159.954254,28.3149514 161.855277,29.0121498 161.855277,31.7875643 L155.896001,31.7875643 C155.896001,33.0615495 156.809538,34.1014008 158.37592,34.1014008 C159.848186,34.1014008 160.501779,33.6294168 160.821479,32.6847055 L161.699908,32.6847055 Z" id="Fill-4" fill="#7B7A73"></path>
                    <path d="M169.791466,32.4496798 C169.636844,33.2524242 168.901085,34.8341281 166.669905,34.8341281 C164.437978,34.8341281 163.19279,33.5118296 163.19279,31.574837 C163.19279,29.7322413 164.331909,28.3148027 166.669905,28.3148027 C168.795016,28.3148027 169.589786,29.6266953 169.745154,30.5126872 L168.865978,30.5126872 C168.591842,29.4609434 167.762713,29.0469354 166.669905,29.0469354 C164.914541,29.0469354 164.071219,30.1581418 164.071219,31.574837 C164.071219,33.0985649 164.99596,34.1012521 166.669905,34.1012521 C167.962899,34.1012521 168.687454,33.404797 168.913037,32.4496798 L169.791466,32.4496798 Z" id="Fill-6" fill="#7B7A73"></path>
                    <path d="M176.269806,31.3381018 C175.901553,31.5871012 175.259911,31.6465638 173.527703,31.7981933 C172.494652,31.8925901 171.913515,32.1906461 171.913515,32.9331847 C171.913515,33.8905317 172.744138,34.1729788 173.692782,34.1729788 C174.87896,34.1729788 176.269806,33.5359863 176.269806,32.2724071 L176.269806,31.3381018 Z M171.309221,30.3933905 C171.439193,29.1067696 172.138351,28.3151744 174.250764,28.3151744 C176.316118,28.3151744 177.07578,28.952167 177.07578,30.1347284 L177.07578,33.3471927 C177.07578,33.8541109 177.21845,34.031012 177.5628,34.031012 C177.717421,34.031012 177.871296,34.0191195 178.025917,34.0079703 L178.025917,34.5996226 C177.846646,34.6338136 177.574751,34.6932762 177.288664,34.6932762 C176.399031,34.6932762 176.340021,34.0897313 176.340021,33.6073413 L176.316118,33.6073413 C176.042729,34.0079703 175.450387,34.8337564 173.432091,34.8337564 C172.375885,34.8337564 171.035085,34.3729217 171.035085,32.9933905 C171.035085,31.3381018 172.755343,31.1270097 174.10884,31.0668039 C176.042729,30.9724071 176.269806,30.8549686 176.269806,30.2529102 C176.269806,29.3550257 175.687174,29.047307 174.227608,29.047307 C172.838255,29.047307 172.174205,29.4011092 172.115942,30.3933905 L171.309221,30.3933905 Z" id="Fill-8" fill="#7B7A73"></path>
                    <path d="M184.444799,33.4419611 L184.420897,33.4419611 C184.170664,34.1012521 183.232478,34.8341281 181.867775,34.8341281 C179.827071,34.8341281 179.198127,33.7704917 179.198127,32.3069697 L179.198127,28.5035963 L180.07581,28.5035963 L180.07581,32.4615723 C180.07581,33.6768382 180.812316,34.1012521 181.938737,34.1012521 C183.660488,34.1012521 184.444799,33.2390452 184.444799,31.835729 L184.444799,28.5035963 L185.322482,28.5035963 L185.332939,34.6453345 L184.45451,34.6453345 L184.444799,33.4419611 Z" id="Fill-10" fill="#7B7A73"></path>
                    <path d="M191.858786,30.323745 C191.633203,29.3299771 191.016211,29.04753 189.734422,29.04753 C188.820138,29.04753 187.954408,29.2489594 187.954408,30.0985306 C187.954408,30.7236306 188.381671,30.867084 190.243851,31.1153402 C192.132175,31.3613665 192.914993,31.6921269 192.914993,32.8850943 C192.914993,34.1137393 191.930495,34.8339794 189.983908,34.8339794 C188.025369,34.8339794 186.863094,34.1962436 186.863094,32.7215723 L187.669068,32.7215723 C187.822942,33.7473013 188.405574,34.1011035 189.983908,34.1011035 C191.20594,34.1011035 192.036564,33.8535906 192.036564,32.9334077 C192.036564,32.3306061 191.597349,32.0466724 189.675412,31.8586221 C187.752728,31.6698285 187.074485,31.2208862 187.074485,30.1349514 C187.074485,29.071315 187.942456,28.3146541 189.734422,28.3146541 C191.727321,28.3146541 192.571389,29.0348942 192.665507,30.323745 L191.858786,30.323745 Z" id="Fill-12" fill="#7B7A73"></path>
                    <path d="M200.199456,31.1267867 C199.950717,29.6149514 198.835501,29.047084 197.659033,29.047084 C196.531865,29.047084 195.309833,29.6149514 195.120104,31.1267867 L200.199456,31.1267867 Z M200.924011,32.6847055 C200.578914,33.7706404 199.642221,34.8342767 197.60077,34.8342767 C195.084997,34.8342767 194.240928,33.0756718 194.240928,31.5749857 C194.240928,29.8609777 195.297881,28.3149514 197.60077,28.3149514 C199.179104,28.3149514 201.078632,29.0121498 201.078632,31.7875643 L195.120104,31.7875643 C195.120104,33.0615495 196.032893,34.1014008 197.60077,34.1014008 C199.071541,34.1014008 199.725134,33.6294168 200.044835,32.6847055 L200.924011,32.6847055 Z" id="Fill-14" fill="#7B7A73"></path>
                    <path d="M150.439283,43.6051515 C150.2137,42.6113836 149.597455,42.3289365 148.314919,42.3289365 C147.401382,42.3289365 146.536399,42.5311092 146.536399,43.3806804 C146.536399,44.0065237 146.962915,44.1484906 148.825095,44.3967467 C150.713419,44.6435163 151.496237,44.9742767 151.496237,46.1672441 C151.496237,47.3951458 150.510992,48.1161292 148.564405,48.1161292 C146.605866,48.1161292 145.443591,47.4783934 145.443591,46.0029788 L146.249565,46.0029788 C146.404933,47.0294511 146.986071,47.3839966 148.564405,47.3839966 C149.787931,47.3839966 150.618554,47.1357404 150.618554,46.2155575 C150.618554,45.6127559 150.178593,45.3288222 148.256656,45.1400286 C146.333971,44.9519783 145.655729,44.503036 145.655729,43.4163579 C145.655729,42.3542081 146.5237,41.5968039 148.314919,41.5968039 C150.309312,41.5968039 151.151886,42.3177873 151.246751,43.6051515 L150.439283,43.6051515 Z" id="Fill-16" fill="#7B7A73"></path>
                    <path d="M156.325132,47.3836249 C157.985632,47.3836249 158.946974,46.3214751 158.946974,44.8564666 C158.946974,43.391458 157.985632,42.3293082 156.325132,42.3293082 C154.663138,42.3293082 153.701796,43.391458 153.701796,44.8564666 C153.701796,46.3214751 154.663138,47.3836249 156.325132,47.3836249 M156.325132,41.5971755 C158.698982,41.5971755 159.82615,43.1424585 159.82615,44.8564666 C159.82615,46.5697313 158.698982,48.1157576 156.325132,48.1157576 C153.951282,48.1157576 152.823367,46.5697313 152.823367,44.8564666 C152.823367,43.1424585 153.951282,41.5971755 156.325132,41.5971755" id="Fill-18" fill="#7B7A73"></path>
                    <path d="M166.802192,46.7233676 L166.777543,46.7233676 C166.528057,47.3834019 165.590617,48.1162779 164.225168,48.1162779 C162.183717,48.1162779 161.55552,47.0526415 161.55552,45.5891195 L161.55552,41.7857461 L162.433949,41.7857461 L162.433949,45.7429788 C162.433949,46.9582447 163.168962,47.3834019 164.296877,47.3834019 C166.017881,47.3834019 166.802192,46.5204517 166.802192,45.1171355 L166.802192,41.7857461 L167.679874,41.7857461 L167.691826,47.9274843 L166.813397,47.9274843 L166.802192,46.7233676 Z" id="Fill-20" fill="#7B7A73"></path>
                    <path d="M174.869847,43.9716638 C174.869847,42.7422756 174.109438,42.3290109 173.005426,42.3290109 C171.284422,42.3290109 170.501604,43.1912178 170.501604,44.5975071 L170.513555,47.9274099 L169.635126,47.9274099 L169.623175,41.7856718 L170.501604,41.7856718 L170.501604,42.991275 L170.52476,42.991275 C170.774246,42.3290109 171.711685,41.5968782 173.077134,41.5968782 C175.117839,41.5968782 175.746782,42.6605146 175.746782,44.1232933 L175.759481,47.9274099 L174.879557,47.9274099 L174.869847,43.9716638 Z" id="Fill-22" fill="#7B7A73"></path>
                    <path d="M180.836069,42.3290852 C179.446717,42.3290852 178.355403,43.2975815 178.355403,44.8569868 C178.355403,46.0856318 179.043356,47.3834019 180.836069,47.3834019 C182.296383,47.3834019 183.422804,46.4624757 183.422804,44.8569868 C183.422804,43.5934077 182.628035,42.3290852 180.836069,42.3290852 L180.836069,42.3290852 Z M183.375745,46.6980961 L183.352589,46.6980961 C183.102356,47.2183934 182.342695,48.1162779 180.836069,48.1162779 C178.319549,48.1162779 177.476974,46.357673 177.476974,44.8569868 C177.476974,43.1429788 178.53318,41.5969525 180.836069,41.5969525 C182.011043,41.5969525 182.948482,42.2346884 183.352589,43.0143911 L183.375745,43.0143911 L183.375745,39.4243396 L184.254174,39.4243396 L184.266126,47.926741 L183.387697,47.926741 L183.375745,46.6980961 Z" id="Fill-24" fill="#7B7A73"></path>
                    <path d="M199.726703,44.0296398 C199.726703,42.8968782 199.167974,42.3290109 197.886932,42.3290109 C196.521482,42.3290109 195.785723,43.1094568 195.785723,44.3001944 L195.798421,47.9274099 L194.919245,47.9274099 L194.907294,43.771721 C194.907294,42.991275 194.349312,42.3290109 193.151183,42.3290109 C191.894043,42.3290109 190.967808,43.0485077 190.967808,44.4659463 L190.97976,47.9274099 L190.10133,47.9274099 L190.088632,41.7856718 L190.967808,41.7856718 L190.967808,42.91992 L190.990964,42.91992 C191.359217,42.2710349 192.023268,41.5968782 193.436523,41.5968782 C194.836332,41.5968782 195.454071,42.3290109 195.6438,42.9429617 C195.927646,42.3290109 196.84193,41.5968782 198.065456,41.5968782 C199.796917,41.5968782 200.604385,42.4598285 200.604385,43.7345569 L200.616336,47.9274099 L199.739401,47.9274099 L199.726703,44.0296398 Z" id="Fill-26" fill="#7B7A73"></path>
                    <path d="M207.460614,44.6201772 C207.092361,44.8691767 206.452213,44.9286392 204.720005,45.081012 C203.686954,45.1746655 203.105817,45.4719783 203.105817,46.2152601 C203.105817,47.1718639 203.935693,47.4550543 204.885084,47.4550543 C206.072009,47.4550543 207.460614,46.8173185 207.460614,45.5544826 L207.460614,44.6201772 Z M202.499282,43.6747227 C202.630001,42.3881018 203.3314,41.5972499 205.443813,41.5972499 C207.50842,41.5972499 208.268082,42.2342424 208.268082,43.4160606 L208.268082,46.6292682 C208.268082,47.1354431 208.410752,47.3123442 208.754355,47.3123442 C208.90823,47.3123442 209.062851,47.301195 209.218219,47.2900457 L209.218219,47.8809548 C209.038948,47.9151458 208.766306,47.9753516 208.481713,47.9753516 C207.59208,47.9753516 207.532323,47.37255 207.532323,46.8886735 L207.50842,46.8886735 C207.235778,47.2900457 206.641942,48.1158319 204.624394,48.1158319 C203.56744,48.1158319 202.22664,47.6549971 202.22664,46.275466 C202.22664,44.6201772 203.947645,44.4083419 205.301143,44.3488794 C207.235778,44.2544826 207.460614,44.137044 207.460614,43.5342424 C207.460614,42.6371012 206.880223,42.3293825 205.419163,42.3293825 C204.030557,42.3293825 203.366507,42.6831847 203.30675,43.6747227 L202.499282,43.6747227 Z" id="Fill-28" fill="#7B7A73"></path>
                    <path d="M210.982846,39.8483076 L211.861275,39.8483076 L211.861275,41.7853002 L213.606182,41.7853002 L213.606182,42.4475643 L211.861275,42.4475643 L211.861275,46.5095998 C211.861275,47.040303 212.027101,47.2900457 212.740451,47.2900457 C213.166968,47.2900457 213.427658,47.2558548 213.606182,47.2179474 L213.606182,47.9523099 C213.273783,47.9983934 212.929433,48.0214351 212.645587,48.0214351 C211.267439,48.0214351 210.982846,47.4892453 210.982846,46.4984505 L210.982846,42.4475643 L209.653998,42.4475643 L209.653998,41.7853002 L210.982846,41.7853002 L210.982846,39.8483076 Z" id="Fill-30" fill="#7B7A73"></path>
                    <path d="M215.751611,39.8483076 L216.63004,39.8483076 L216.63004,41.7853002 L218.374947,41.7853002 L218.374947,42.4475643 L216.63004,42.4475643 L216.63004,46.5095998 C216.63004,47.040303 216.796613,47.2900457 217.508469,47.2900457 C217.935732,47.2900457 218.19717,47.2558548 218.374947,47.2179474 L218.374947,47.9523099 C218.043295,47.9983934 217.696704,48.0214351 217.413605,48.0214351 C216.036204,48.0214351 215.751611,47.4892453 215.751611,46.4984505 L215.751611,42.4475643 L214.422763,42.4475643 L214.422763,41.7853002 L215.751611,41.7853002 L215.751611,39.8483076 Z" id="Fill-32" fill="#7B7A73"></path>
                    <path d="M225.672632,44.4081933 C225.422399,42.8963579 224.307182,42.3292338 223.132209,42.3292338 C222.00504,42.3292338 220.783008,42.8963579 220.591785,44.4081933 L225.672632,44.4081933 Z M226.395692,45.9668553 C226.052089,47.0527902 225.11465,48.1156832 223.073945,48.1156832 C220.556678,48.1156832 219.714103,46.3578216 219.714103,44.8571355 C219.714103,43.1423842 220.771057,41.5971012 223.073945,41.5971012 C224.652279,41.5971012 226.550314,42.2942996 226.550314,45.0689708 L220.591785,45.0689708 C220.591785,46.3444425 221.506069,47.3835506 223.073945,47.3835506 C224.544717,47.3835506 225.19831,46.9115666 225.518757,45.9668553 L226.395692,45.9668553 Z" id="Fill-34" fill="#7B7A73"></path>
                    <path d="M228.209395,41.7855232 L229.088571,41.7855232 L229.088571,43.1910692 L229.11098,43.1910692 C229.43068,42.470829 230.014805,41.5967296 231.472878,41.5967296 C231.722364,41.5967296 231.864287,41.6086221 231.995006,41.6450429 L231.995006,42.5429274 C231.722364,42.4946141 231.449722,42.470829 231.187538,42.470829 C230.239641,42.470829 229.088571,43.0491023 229.088571,44.7973013 L229.099775,47.9272613 L228.220599,47.9272613 L228.209395,41.7855232 Z" id="Fill-36" fill="#7B7A73"></path>
                    <g id="Group-40" transform="translate(232.305668, 40.880503)">
                        <mask id="mask-2" fill="white">
                            <use xlink:href="#path-1"></use>
                        </mask>
                        <g id="Clip-39"></g>
                        <path d="M5.47920182,2.72464837 C5.25361883,1.7308805 4.63662692,1.44843339 3.35483745,1.44843339 C2.44204798,1.44843339 1.57482328,1.65060606 1.57482328,2.50017724 C1.57482328,3.12602058 2.00208644,3.26798742 3.86501356,3.51624357 C5.75333745,3.76301315 6.53615526,4.09377358 6.53615526,5.28674099 C6.53615526,6.51464265 5.55091032,7.23562607 3.60432328,7.23562607 C1.64653178,7.23562607 0.482762551,6.59789022 0.482762551,5.1224757 L1.29097713,5.1224757 C1.44485162,6.14894797 2.02598927,6.50349342 3.60432328,6.50349342 C4.82710263,6.50349342 5.65772611,6.25523728 5.65772611,5.33505432 C5.65772611,4.73225272 5.21851154,4.44831904 3.29582733,4.25952544 C1.37389008,4.07147513 0.697141093,3.62253288 0.697141093,2.53585477 C0.697141093,1.47370497 1.5621249,0.716300743 3.35483745,0.716300743 C5.34923016,0.716300743 6.1910581,1.43728416 6.28666943,2.72464837 L5.47920182,2.72464837 Z" id="Fill-38" fill="#7B7A73" mask="url(#mask-2)"></path>
                    </g>
                    <path d="M103.567618,10.2983934 L103.567618,32.2958205 L109.101871,32.2958205 L109.101871,14.7692338 L114.069926,14.7692338 C117.431262,14.7692338 117.585884,16.1918754 118.157311,19.0364151 L120.952448,32.2958205 L126.743657,32.2958205 L123.950013,18.2752945 C122.864675,12.5297256 121.157863,10.2983934 114.589813,10.2983934 L103.567618,10.2983934 Z" id="Fill-41" fill="#1D1C1B"></path>
                    <path d="M68.2355696,27.8786449 C65.7534097,27.8786449 64.5097154,27.7240423 63.3728368,27.0647513 C61.2551951,25.8442824 60.5269057,24.1198685 60.5269057,21.3243854 C60.5762053,16.1377644 62.9074785,14.7693825 68.2355696,14.7693825 L74.5496526,14.7693825 L74.5496526,10.298542 L66.424183,10.298542 C62.8559381,10.298542 60.0637883,11.213522 57.9409178,13.143825 C55.9734158,14.973785 54.6841567,18.0182676 54.6841567,21.3243854 C54.6841567,24.8824757 55.9734158,27.6749857 57.9409178,29.5042024 C60.0637883,31.4345054 62.8021567,32.2959691 66.424183,32.2959691 L74.5496526,32.2959691 L74.5496526,27.8786449 L68.2355696,27.8786449 Z" id="Fill-43" fill="#1D1C1B"></path>
                    <path d="M45.6259536,14.5145111 L45.6259536,32.3480732 L51.419403,32.3480732 L51.419403,10.3446998 L33.5214091,10.3446998 L33.5214091,2.16934248 L27.987903,2.16934248 L27.987903,10.3446998 L23.3843666,10.3446998 L23.3843666,14.5145111 L27.987903,14.5145111 L27.987903,25.3857519 C27.987903,29.6573928 30.3146945,32.3480732 34.712069,32.3480732 L39.7309172,32.3480732 L39.7309172,28.1306918 L37.4033787,28.1306918 C34.5567006,28.1306918 33.5214091,26.6604803 33.5214091,23.6100515 L33.5214091,14.5145111 L45.6259536,14.5145111 Z" id="Fill-45" fill="#1D1C1B"></path>
                    <path d="M12.0029575,28.3868268 C8.22630972,28.3868268 6.05264575,25.8953459 6.05264575,21.3241624 C6.05264575,16.4987764 8.27710324,14.5669868 12.0029575,14.5669868 C15.7803522,14.5669868 17.8457065,16.8518353 17.8457065,21.3241624 C17.8457065,25.7422298 15.4666275,28.3868268 12.0029575,28.3868268 M11.9499231,9.84343053 C4.60577733,9.84343053 0,14.7171298 0,21.3241624 C0,27.5238765 4.2435,33.0613265 11.9499231,33.0613265 C19.1409413,33.0613265 23.9005931,28.0300515 23.9005931,21.3241624 C23.9005931,14.7171298 19.0371134,9.84343053 11.9499231,9.84343053" id="Fill-47" fill="#1D1C1B"></path>
                    <path d="M88.4097856,28.3868268 C84.6331379,28.3868268 82.4632087,25.8953459 82.4632087,21.3241624 C82.4632087,16.4987764 84.6899071,14.5669868 88.4097856,14.5669868 C92.1841925,14.5669868 94.2532816,16.8518353 94.2532816,21.3241624 C94.2532816,25.7422298 91.8779374,28.3868268 88.4097856,28.3868268 M88.3597391,9.84343053 C80.9618119,9.84343053 76.4113099,14.7171298 76.4113099,21.3241624 C76.4113099,27.5238765 80.6032694,33.0613265 88.3597391,33.0613265 C95.495482,33.0613265 100.307421,28.0300515 100.307421,21.3241624 C100.307421,14.7171298 95.4461824,9.84343053 88.3597391,9.84343053" id="Fill-49" fill="#1D1C1B"></path>
                    <g id="Group-53" transform="translate(43.323887, 0.000000)">
                        <mask id="mask-4" fill="white">
                            <use xlink:href="#path-3"></use>
                        </mask>
                        <g id="Clip-52"></g>
                        <polygon id="Fill-51" fill="#EB6608" mask="url(#mask-4)" points="0.650231781 4.49663236 5.20446862 0.0109262436 9.77065688 4.49663236 5.20446862 8.96672956"></polygon>
                    </g>
                    <polygon id="Fill-54" fill="#1D1C1B" points="55.5946306 48.0863236 55.5826791 40.6676272 51.7888512 48.0863236 50.7610294 48.0863236 46.955997 40.6572213 46.9672014 48.0863236 45.7601083 48.0863236 45.7474099 38.8034763 47.3347075 38.8034763 51.2876387 46.4860377 55.2405698 38.8034763 56.7890253 38.8034763 56.8017237 48.0863236"></polygon>
                    <polygon id="Fill-56" fill="#1D1C1B" points="61.7643255 48.0863236 61.7523741 38.8034763 69.2279854 38.8034763 69.2279854 39.9295483 62.9594672 39.9295483 62.9594672 42.7183419 68.9994146 42.7183419 68.9994146 43.844414 62.9594672 43.844414 62.9594672 46.9609949 69.3273316 46.9609949 69.3437648 48.0863236"></polygon>
                    <path d="M78.1949095,46.9609205 C79.517035,46.9609205 81.0931281,46.3514294 81.0931281,43.4451973 C81.0931281,41.079331 80.1452314,39.929474 78.1949095,39.929474 L74.9030411,39.929474 L74.9030411,46.9609205 L78.1949095,46.9609205 Z M73.7078994,48.0862493 L73.695201,38.8034019 L78.2337516,38.8034019 C80.9048933,38.8034019 82.3764115,40.4520011 82.3764115,43.4451973 C82.3764115,46.2644654 80.8100289,48.0862493 78.3853852,48.0862493 L73.7078994,48.0862493 Z" id="Fill-58" fill="#1D1C1B"></path>
                    <polygon id="Fill-60" fill="#1D1C1B" points="87.0850457 48.0863236 87.0723474 38.8034763 88.2794405 38.8034763 88.2928858 48.0863236"></polygon>
                    <path d="M112.586531,44.2207376 L110.799047,40.1995826 L108.989902,44.2207376 L112.586531,44.2207376 Z M114.3038,48.0865466 L113.085503,45.345323 L108.489436,45.345323 L107.271138,48.0865466 L105.960217,48.0865466 L110.179815,38.8036993 L111.445171,38.8036993 L115.690912,48.0865466 L114.3038,48.0865466 Z" id="Fill-62" fill="#1D1C1B"></path>
                    <polygon id="Fill-64" fill="#1D1C1B" points="119.514021 48.0863236 119.501322 38.8034763 120.709162 38.8034763 120.709162 46.9609949 126.455553 46.9609949 126.471986 48.0863236"></polygon>
                    <path d="M97.8290709,48.3133219 C94.8188077,48.3133219 92.8729676,46.4023442 92.8729676,43.4455689 C92.8729676,41.6371641 93.9172227,38.5763293 97.8290709,38.5763293 C99.5971336,38.5763293 101.684897,39.3092053 102.245866,41.3658662 L102.292178,41.5338479 L101.048484,41.5338479 L101.01487,41.4476272 C100.413565,39.8718696 98.5864919,39.7016581 97.8290709,39.7016581 C95.4948097,39.7016581 94.156251,41.0663236 94.156251,43.4455689 C94.156251,44.3233848 94.4206761,47.1887364 97.8290709,47.1887364 C99.5508219,47.1887364 100.651099,46.4736993 101.097783,45.0644368 L101.127662,44.9715266 L102.373597,44.9715266 L102.331767,45.1372784 C101.842506,47.0668382 100.07519,48.3133219 97.8290709,48.3133219" id="Fill-66" fill="#1D1C1B"></path>
                </g>
            </g>
        </g>
    </g>
</svg>